# xmcd
#
# Track frame offsets: 
#        150
#        15046
#        27968
#        38622
#        56919
#        68222
#        83224
#        93883
#        108266
#        123276
#        140299
#        155009
#
# Disc length: 2268 seconds
#
# Revision: 3
# Processed by: cddbd v1.5.1PL0 Copyright (c) Steve Scherf et al.
# Submitted via: ExactAudioCopy v0.90b4
#
DISCID=8c08da0c
DTITLE=Various Artist - The Beach Boys - Stars and Stripes Vol 1
DYEAR=1996
DGENRE=Country
TTITLE0=Lorrie Morgan/Don't Worry Baby
TTITLE1=James House/Little Deuce Coupe
TTITLE2=Junior Brown/409
TTITLE3=Doug Supernaw/Long Tall Texan
TTITLE4=Sawyer Brown/I Get Around
TTITLE5=Toby Keith/Be True To Your School
TTITLE6=Ricky Van Shelton/Fun, Fun, Fun
TTITLE7=T. Graham Brown/Help Me Rhonda
TTITLE8=Willie Nelson/The Warmth Of The Sun
TTITLE9=Collin Raye/Sloop John B.
TTITLE10=Kathy Troccoli/I Can Hear Music
TTITLE11=Timothy B. Schmitt/Caroline, No
EXTD=1996 River North Nashville Records adn Brother Records - Disky Co
EXTD=mmunications Europe BV\n\nProduced by Brian Wilson and Joe Thomas\n
EXTD=Executive Producer: Mike Love\n
EXTT0=
EXTT1=
EXTT2=
EXTT3=
EXTT4=
EXTT5=
EXTT6=
EXTT7=
EXTT8=
EXTT9=
EXTT10=
EXTT11=
PLAYORDER=
